<svg width="200" height="50" viewBox="0 0 200 50" fill="none" xmlns="http://www.w3.org/2000/svg">
<defs>
    <linearGradient id="logoGradient" x1="0" y1="25" x2="200" y2="25" gradientUnits="userSpaceOnUse">
        <stop stop-color="#A855F7"/>
        <stop offset="1" stop-color="#EC4899"/>
    </linearGradient>
</defs>
<path d="M22.9941 2.38281C21.0391 2.38281 19.5391 3.91016 19.5391 5.86523V19.793C19.5391 21.748 21.0391 23.2754 22.9941 23.2754C24.0117 23.2754 24.9102 22.8262 25.5586 22.1055L29.3477 17.5195C29.6191 17.1875 30.1328 17.1875 30.4043 17.5195L34.1934 22.1055C34.8418 22.8262 35.7402 23.2754 36.7578 23.2754C38.7129 23.2754 40.2129 21.748 40.2129 19.793V5.86523C40.2129 3.91016 38.7129 2.38281 36.7578 2.38281C34.8027 2.38281 33.3027 3.91016 33.3027 5.86523V14.6289L30.1523 10.7422C29.9863 10.5479 29.7617 10.4502 29.5371 10.4502C29.3125 10.4502 29.0879 10.5479 28.9219 10.7422L25.7715 14.6289V5.86523C25.7715 3.91016 24.2715 2.38281 22.9941 2.38281Z" fill="url(#logoGradient)"/>
<text x="50" y="35" font-family="Poppins, sans-serif" font-size="30" font-weight="700" fill="url(#logoGradient)">GlowUp</text>
</svg>